HIERARCHY
ROOT Hips
{
	OFFSET 0.000000 0.000000 0.000000
	CHANNELS 6 Xposition Yposition Zposition Zrotation Yrotation Xrotation 
	JOINT LowerBack
	{
		OFFSET 0.000000 0.000000 0.000000
		CHANNELS 3 Zrotation Yrotation Xrotation
		JOINT Spine
		{
			OFFSET 0.028270 2.035590 -0.193380
			CHANNELS 3 Zrotation Yrotation Xrotation
			JOINT Spine1
			{
				OFFSET 0.056720 2.048850 -0.042750
				CHANNELS 3 Zrotation Yrotation Xrotation
				JOINT Neck
				{
					OFFSET 0.000000 0.000000 0.000000
					CHANNELS 3 Zrotation Yrotation Xrotation
					JOINT Neck1
					{
						OFFSET -0.054170 1.746240 0.172020
						CHANNELS 3 Zrotation Yrotation Xrotation
						JOINT Head
						{
							OFFSET 0.104070 1.761360 -0.123970
							CHANNELS 3 Zrotation Yrotation Xrotation
							End Site
							{
								OFFSET 0.000000 0.000000 0.000000
							}
						}
					}
				}
				JOINT LeftShoulder
				{
					OFFSET 0.000000 0.000000 0.000000
					CHANNELS 3 Zrotation Yrotation Xrotation
					JOINT LeftArm
					{
						OFFSET 3.362410 1.200890 -0.311210
						CHANNELS 3 Zrotation Yrotation Xrotation
						JOINT LeftForeArm
						{
							OFFSET 4.983000 -0.000000 -0.000000
							CHANNELS 3 Zrotation Yrotation Xrotation
							JOINT LeftHand
							{
								OFFSET 3.483560 -0.000000 -0.000000
								CHANNELS 3 Zrotation Yrotation Xrotation
								JOINT LeftFingerBase
								{
									OFFSET 0.000000 0.000000 0.000000
									CHANNELS 3 Zrotation Yrotation Xrotation
									JOINT LeftHandIndex1
									{
										OFFSET 0.715260 -0.000000 -0.000000
										CHANNELS 3 Zrotation Yrotation Xrotation
										End Site
										{
											OFFSET 0.000000 0.000000 0.000000
										}
									}
								}
								JOINT LThumb
								{
									OFFSET 0.000000 0.000000 0.000000
									CHANNELS 3 Zrotation Yrotation Xrotation
									End Site
									{
										OFFSET 0.000000 0.000000 0.000000
									}
								}
							}
						}
					}
				}
				JOINT RightShoulder
				{
					OFFSET 0.000000 0.000000 0.000000
					CHANNELS 3 Zrotation Yrotation Xrotation
					JOINT RightArm
					{
						OFFSET -3.136600 1.374050 -0.404650
						CHANNELS 3 Zrotation Yrotation Xrotation
						JOINT RightForeArm
						{
							OFFSET -5.241900 -0.000000 -0.000000
							CHANNELS 3 Zrotation Yrotation Xrotation
							JOINT RightHand
							{
								OFFSET -3.444170 -0.000000 -0.000000
								CHANNELS 3 Zrotation Yrotation Xrotation
								JOINT RightFingerBase
								{
									OFFSET 0.000000 0.000000 0.000000
									CHANNELS 3 Zrotation Yrotation Xrotation
									JOINT RightHandIndex1
									{
										OFFSET -0.622530 -0.000000 -0.000000
										CHANNELS 3 Zrotation Yrotation Xrotation
										End Site
										{
											OFFSET 0.000000 0.000000 0.000000
										}
									}
								}
								JOINT RThumb
								{
									OFFSET 0.000000 0.000000 0.000000
									CHANNELS 3 Zrotation Yrotation Xrotation
									End Site
									{
										OFFSET 0.000000 0.000000 0.000000
									}
								}
							}
						}
					}
				}
			}
		}
	}
}
}
MOTION
Frames: 7
Frame Time: 0.008333
-2.934830 16.418541 -0.630016 8.694809 68.073338 35.904115 -3.778290 1.742599 6.093134 -1.895137 1.956230 -1.993936 -6.356081 1.845657 -0.342387 10.880632 5.848867 4.858094 -4.310141 -0.418571 2.848805 0.000000 0.000000 0.000000 -7.042936 -0.379206 2.400798 -63.132964 10.044145 15.552836 -3.406157 -21.188719 -0.003922 -1.435556 2.384427 -0.029303 -0.060942 -0.055141 0.000000 0.000000 0.000000 0.000000 0.000000 0.000000 0.000000 20.532103 7.154419 -1.733666 87.853836 27.968893 42.685914 1.546012 47.251670 0.013308 5.001443 9.944245 0.455345 -0.073314 -0.294746 -0.000000 0.000000 0.000000 0.000000 0.000000 0.000000 0.000000 
-2.829994 16.362069 -0.618788 9.542615 67.517362 36.431549 -4.328732 1.681646 6.510655 -2.022070 1.914972 -1.935390 -6.428392 1.804887 -0.449595 10.791211 6.193916 5.127317 -4.391363 -0.424327 2.903482 0.000000 0.000000 0.000000 -7.388849 -0.827415 2.470759 -62.431668 10.074196 16.673262 -3.442055 -20.998185 -0.004089 -1.687671 2.300253 -0.033512 -0.059858 -0.056512 0.000000 0.000000 0.000000 0.000000 0.000000 0.000000 0.000000 20.848629 7.374919 -1.786397 88.081148 28.040807 42.280484 1.507888 46.957936 0.012315 4.959879 10.210518 0.463927 -0.076935 -0.297716 -0.000000 0.000000 0.000000 0.000000 0.000000 0.000000 0.000000 
-2.727355 16.315054 -0.608903 10.260341 66.992160 36.800454 -4.790178 1.648627 6.965536 -2.131845 1.897248 -1.861074 -6.492711 1.788356 -0.535973 10.670017 6.560459 5.459710 -4.475662 -0.430293 2.971654 0.000000 0.000000 0.000000 -7.759976 -1.317822 2.527439 -61.780815 9.815019 17.738860 -3.480507 -20.463580 -0.004226 -1.913916 2.219488 -0.036918 -0.059103 -0.056974 0.000000 0.000000 0.000000 0.000000 0.000000 0.000000 0.000000 21.121925 7.575795 -1.857298 88.225558 28.092398 41.649406 1.470129 46.563345 0.010825 4.802186 10.549900 0.464211 -0.078831 -0.299749 -0.000000 0.000000 0.000000 0.000000 0.000000 0.000000 0.000000 
-2.625944 16.278189 -0.600642 10.822737 66.490920 36.983442 -5.154420 1.646667 7.449166 -2.222320 1.906564 -1.770079 -6.546354 1.799691 -0.591319 10.515190 6.940074 5.845498 -4.560978 -0.436217 3.050726 0.000000 0.000000 0.000000 -8.134659 -1.799373 2.566488 -61.209715 9.210822 18.783823 -3.518324 -19.548387 -0.004288 -2.077523 2.156660 -0.039021 -0.058708 -0.056200 0.000000 0.000000 0.000000 0.000000 0.000000 0.000000 0.000000 21.335675 7.752162 -1.948834 88.285815 28.118026 40.794586 1.434125 46.073428 0.008864 4.524067 10.953881 0.454099 -0.078804 -0.300553 -0.000000 0.000000 0.000000 0.000000 0.000000 0.000000 0.000000 
-2.524785 16.251480 -0.594327 11.205273 66.010117 36.961813 -5.414251 1.676555 7.945847 -2.291412 1.944356 -1.664270 -6.586872 1.840303 -0.610980 10.326098 7.310588 6.274236 -4.645002 -0.441912 3.138469 0.000000 0.000000 0.000000 -8.490383 -2.266884 2.585157 -60.771052 8.272834 19.659739 -3.555013 -18.246010 -0.004284 -2.171759 2.155703 -0.040821 -0.058644 -0.053756 0.000000 0.000000 0.000000 0.000000 0.000000 0.000000 0.000000 21.475252 7.886445 -2.058318 88.266268 28.118931 39.749003 1.401770 45.494220 0.006508 4.119162 11.407100 0.430689 -0.076615 -0.299884 -0.000000 0.000000 0.000000 0.000000 0.000000 0.000000 0.000000 
-2.422960 16.234669 -0.589803 11.407208 65.545118 36.737841 -5.570548 1.737132 8.437387 -2.338913 2.010508 -1.549871 -6.614824 1.909729 -0.604507 10.109145 7.666524 6.748040 -4.725254 -0.447376 3.236422 0.000000 0.000000 0.000000 -8.824375 -2.773078 2.583461 -60.481746 7.109683 20.235046 -3.587068 -16.626437 -0.004207 -2.163898 2.251145 -0.042319 -0.058585 -0.049512 0.000000 0.000000 0.000000 0.000000 0.000000 0.000000 0.000000 21.536031 7.978161 -2.176802 88.164927 28.075844 38.517870 1.373994 44.835757 0.003898 3.603576 11.884583 0.392782 -0.072553 -0.297621 -0.000000 0.000000 0.000000 0.000000 0.000000 0.000000 0.000000 
-2.319840 16.227126 -0.586761 11.436897 65.091663 36.329548 -5.631138 1.820883 8.910938 -2.365729 2.098763 -1.421873 -6.628148 2.002200 -0.544773 9.868226 7.983375 7.223487 -4.801233 -0.452116 3.332782 0.000000 0.000000 0.000000 -9.105226 -3.142923 2.553940 -60.353487 5.530627 20.637081 -3.609962 -14.614378 -0.003986 -2.005134 2.428243 -0.042010 -0.058422 -0.042614 0.000000 0.000000 0.000000 0.000000 0.000000 0.000000 0.000000 21.516077 8.012506 -2.313442 88.002595 28.011269 37.153560 1.353221 44.102971 0.001224 2.997273 12.361419 0.340079 -0.066738 -0.293382 -0.000000 0.000000 0.000000 0.000000 0.000000 0.000000 0.000000 
